<svg width="280" height="120" viewBox="0 0 280 120" fill="none" xmlns="http://www.w3.org/2000/svg">
<path d="M251.918 47.9505L252.278 48.1665C250.406 53.8545 247.382 59.8305 241.982 59.8305C237.59 59.8305 235.502 55.9425 235.502 50.1105C235.502 36.4305 247.31 20.2305 254.582 20.2305C257.03 20.2305 258.326 22.2465 258.326 25.1985C258.326 30.0945 254.294 37.2225 245.438 39.3825C244.862 41.9745 244.502 44.4945 244.502 46.5825C244.502 50.6145 245.798 52.4145 247.454 52.4145C249.542 52.4145 250.766 50.5425 251.918 47.9505ZM252.566 21.0225C251.414 21.0225 247.382 30.3105 245.51 38.8785C250.406 35.6385 252.926 25.1265 252.926 21.9585C252.926 21.4545 252.854 21.0225 252.566 21.0225Z" fill="white"/>
<path d="M231.184 54.72C231.184 55.08 231.328 55.224 231.472 55.224C231.76 55.224 232.984 53.28 234.064 50.328L234.424 50.4C232.912 55.224 230.824 59.832 228.736 59.832C226.36 59.832 222.832 56.304 222.832 52.992C222.832 50.4 224.056 45.576 225.28 41.04L234.568 5.904L234.712 1.44L244.864 0L244 3.096L234.136 41.04C232.624 47.088 231.184 52.488 231.184 54.72Z" fill="white"/>
<path d="M224.803 17.0623C222.139 17.0623 220.051 14.9023 220.051 12.2383C220.051 9.64633 222.139 7.48633 224.803 7.48633C227.467 7.48633 229.555 9.64633 229.555 12.2383C229.555 14.9023 227.467 17.0623 224.803 17.0623ZM215.947 59.8303C213.571 59.8303 210.043 56.3023 210.043 52.9903C210.043 48.8143 217.243 27.6463 217.243 24.9103C217.243 24.6223 217.171 24.5503 217.099 24.5503C216.739 24.5503 216.019 25.2703 214.651 29.2303L214.291 29.1583C215.659 23.8303 217.747 20.2303 220.051 20.2303C221.923 20.2303 225.091 24.2623 225.091 28.1503C225.091 31.7503 218.395 49.8943 218.395 54.7183C218.395 55.0783 218.539 55.2223 218.683 55.2223C219.043 55.2223 220.195 53.2783 221.275 50.3263L221.635 50.3983C220.411 55.2223 218.035 59.8303 215.947 59.8303Z" fill="white"/>
<path d="M202.479 59.0391L198.735 10.3671L191.031 50.3271L193.767 58.6071L193.695 59.0391H187.719L187.791 58.6071L190.311 50.3271L197.799 11.6631L197.367 5.47107L197.439 5.03906H206.943L209.463 38.1591L214.143 13.7511L211.623 5.47107L211.695 5.03906H217.671L217.599 5.47107L214.791 13.7511L206.151 59.0391H202.479Z" fill="white"/>
<path d="M180.27 47.9505L180.63 48.1665C178.758 53.8545 175.734 59.8305 170.334 59.8305C165.942 59.8305 163.854 55.9425 163.854 50.1105C163.854 36.4305 175.662 20.2305 182.934 20.2305C185.382 20.2305 186.678 22.2465 186.678 25.1985C186.678 30.0945 182.646 37.2225 173.79 39.3825C173.214 41.9745 172.854 44.4945 172.854 46.5825C172.854 50.6145 174.15 52.4145 175.806 52.4145C177.894 52.4145 179.118 50.5425 180.27 47.9505ZM180.918 21.0225C179.766 21.0225 175.734 30.3105 173.862 38.8785C178.758 35.6385 181.278 25.1265 181.278 21.9585C181.278 21.4545 181.206 21.0225 180.918 21.0225Z" fill="white"/>
<path d="M150.61 52.992C150.61 50.472 157.954 31.68 157.954 28.08C157.954 27.792 157.666 27.36 157.522 27.36C156.874 27.36 155.29 32.04 150.394 46.152L145.93 59.04H136.498L136.57 58.608L138.73 53.28L150.97 5.904L151.114 1.44L161.266 0L160.402 3.096L148.234 49.896L149.818 45.504C155.506 29.448 158.746 20.16 160.33 20.16C164.362 20.16 167.314 24.264 167.314 27C167.314 30.816 158.962 51.768 158.962 54.72C158.962 55.08 159.106 55.224 159.25 55.224C159.61 55.224 160.762 53.28 161.842 50.328L162.202 50.4C160.978 55.224 158.602 59.832 156.514 59.832C154.21 59.832 150.61 56.304 150.61 52.992Z" fill="white"/>
<path d="M133.168 54.7199C133.168 55.0079 133.312 55.0799 133.456 55.0799C133.96 55.0799 135.472 53.5679 137.056 51.3359L137.344 51.5519C135.184 56.1599 132.952 59.8319 130.792 59.8319C128.704 59.8319 125.248 55.4399 125.248 51.6239C125.248 50.0399 130.72 31.7519 133.6 21.4559H130.936L131.008 21.1679L144.184 14.2559H144.472C143.896 16.0559 143.32 18.2879 142.6 20.8799H145.408L145.264 21.4559H142.312C138.856 33.3359 133.168 51.5519 133.168 54.7199Z" fill="white"/>
<path d="M100.493 59.0382H91.6367C95.3087 47.2302 101.357 31.4622 101.357 28.0782C101.357 27.9342 101.141 27.6462 101.069 27.6462C100.349 27.6462 99.0527 32.3262 94.0127 46.1502L89.3327 59.0382H79.9727L80.0447 58.6062L82.1327 53.2782C87.4607 34.2702 89.4767 26.7822 89.4767 24.9102C89.4767 24.6222 89.4047 24.5502 89.3327 24.5502C88.9727 24.5502 88.2527 25.2702 86.8847 29.2302L86.5247 29.1582C87.8927 23.8302 89.9807 20.2302 92.2847 20.2302C94.0847 20.2302 97.3247 24.5502 97.3247 27.5742C97.3247 29.8782 95.3807 36.2862 91.5647 50.5422L93.4367 45.5022C99.4127 29.5182 102.149 20.1582 103.733 20.1582C107.333 20.1582 109.997 24.2622 109.997 26.9982C109.997 27.8622 108.053 33.8382 103.157 48.8142H103.229C110.285 29.7342 113.597 20.1582 115.181 20.1582C119.141 20.1582 122.021 24.2622 122.021 26.9982C122.021 30.7422 113.669 51.7662 113.669 54.7182C113.669 55.0782 113.813 55.2222 113.957 55.2222C114.317 55.2222 115.469 53.2782 116.549 50.3262L116.909 50.3982C115.685 55.2222 113.309 59.8302 111.221 59.8302C108.917 59.8302 105.317 56.3022 105.317 52.9902C105.317 50.4702 112.661 31.7502 112.661 27.9342C112.661 27.7902 112.517 27.7182 112.301 27.7182C111.653 27.7182 109.997 32.5422 105.101 46.1502L100.493 59.0382Z" fill="white"/>
<path d="M84.0382 34.4865C84.0382 46.9425 74.7502 59.8305 68.4142 59.8305C63.8062 59.8305 61.5742 51.4785 61.5742 45.5025C61.5742 33.1185 70.8622 20.2305 77.1982 20.2305C81.8062 20.2305 84.0382 28.5825 84.0382 34.4865ZM68.7742 59.0385C70.6462 59.0385 77.1982 29.0145 77.1982 22.3905C77.1982 21.3825 77.0542 21.0225 76.8382 21.0225C74.9662 21.0225 68.4142 51.0465 68.4142 57.6705C68.4142 58.6785 68.5582 59.0385 68.7742 59.0385Z" fill="white"/>
<path d="M59.5896 32.7585C57.0696 32.7585 55.4856 35.3505 51.7416 46.1505L47.2776 59.0385H38.3496L38.4216 58.6065L40.5096 53.2785C45.4056 34.4865 47.8536 26.7825 47.8536 24.9105C47.8536 24.6225 47.7816 24.5505 47.7096 24.5505C47.3496 24.5505 46.6296 25.2705 45.2616 29.2305L44.9016 29.1585C46.2696 23.8305 48.3576 20.2305 50.6616 20.2305C52.5336 20.2305 55.7016 24.5505 55.7016 27.5745C55.7016 29.9505 53.2536 36.9345 50.1576 48.1665L51.0936 45.5025C57.5736 26.9985 61.6776 20.2305 66.2136 20.2305L62.3256 33.4065C61.4616 33.0465 60.4536 32.7585 59.5896 32.7585Z" fill="white"/>
<path d="M32.588 59.0391H21.5L21.572 58.6071L23.444 53.1351L31.652 10.9431L31.724 5.47107V5.03906H50.156L49.004 11.0151H48.5L42.092 5.61506H41.804L37.052 30.0951L42.74 25.5591H43.244L41.516 34.6311H41.012L36.98 30.6711L32.588 53.1351L32.66 58.6071L32.588 59.0391Z" fill="white"/>
<path d="M230.47 95.9917C230.47 93.3997 231.55 89.7997 232.918 83.9677L235.222 75.1837L231.046 87.4957C227.734 97.2157 225.358 102.832 223.486 102.832C219.814 102.832 217.006 99.8077 217.006 94.0477C217.006 83.2477 230.974 63.2317 236.23 63.2317C236.734 63.2317 237.454 63.3037 238.246 63.3757L242.062 48.8317L242.206 44.3677L252.358 42.9277L251.566 46.0237L241.774 83.9677C240.262 89.9437 238.822 95.4877 238.822 97.7197C238.822 98.0797 238.966 98.2237 239.11 98.2237C239.398 98.2237 240.622 96.2797 241.702 93.3277L242.062 93.3997C240.55 98.2237 238.462 102.832 236.374 102.832C233.998 102.832 230.47 99.3037 230.47 95.9917ZM226.006 96.4237C226.006 96.9277 226.078 97.1437 226.294 97.1437C226.726 97.1437 227.95 94.2637 230.398 86.9917L237.454 66.1117C236.878 64.5277 236.374 63.9517 236.158 63.9517C234.718 63.9517 226.006 91.4557 226.006 96.4237Z" fill="#D640FD"/>
<path d="M213.065 97.72C213.065 98.08 213.209 98.224 213.353 98.224C213.641 98.224 214.865 96.28 215.945 93.328L216.305 93.4C214.793 98.224 212.705 102.832 210.617 102.832C208.241 102.832 204.713 99.304 204.713 95.992C204.713 93.4 205.937 88.576 207.161 84.04L216.449 48.904L216.593 44.44L226.745 43L225.881 46.096L216.017 84.04C214.505 90.088 213.065 95.488 213.065 97.72Z" fill="#D640FD"/>
<path d="M204.385 75.7585C201.865 75.7585 200.281 78.3505 196.537 89.1505L192.073 102.038H183.145L183.217 101.606L185.305 96.2785C190.201 77.4865 192.649 69.7825 192.649 67.9105C192.649 67.6225 192.577 67.5505 192.505 67.5505C192.145 67.5505 191.425 68.2705 190.057 72.2305L189.697 72.1585C191.065 66.8305 193.153 63.2305 195.457 63.2305C197.329 63.2305 200.497 67.5505 200.497 70.5745C200.497 72.9505 198.049 79.9345 194.953 91.1665L195.889 88.5025C202.369 69.9985 206.473 63.2305 211.009 63.2305L207.121 76.4065C206.257 76.0465 205.249 75.7585 204.385 75.7585Z" fill="#D640FD"/>
<path d="M187.068 77.4865C187.068 89.9425 177.78 102.83 171.444 102.83C166.836 102.83 164.604 94.4785 164.604 88.5025C164.604 76.1185 173.892 63.2305 180.228 63.2305C184.836 63.2305 187.068 71.5825 187.068 77.4865ZM171.804 102.038C173.676 102.038 180.228 72.0145 180.228 65.3905C180.228 64.3825 180.084 64.0225 179.868 64.0225C177.996 64.0225 171.444 94.0465 171.444 100.67C171.444 101.678 171.588 102.038 171.804 102.038Z" fill="#D640FD"/>
<path d="M142.761 102.039H138.801L142.833 53.9431L142.689 48.4711L142.761 48.0391H153.273L153.201 48.4711L151.545 53.9431L149.529 79.5031L159.537 48.0391H162.633L162.561 79.5031L168.681 56.6071L167.241 48.4711L167.313 48.0391H172.929L172.857 48.4711L169.329 56.8231L157.233 102.039H153.417L153.489 69.4231L142.761 102.039Z" fill="#D640FD"/>
<path d="M125.447 90.9505L125.807 91.1665C123.935 96.8545 120.911 102.83 115.511 102.83C111.119 102.83 109.031 98.9425 109.031 93.1105C109.031 79.4305 120.839 63.2305 128.111 63.2305C130.559 63.2305 131.855 65.2465 131.855 68.1985C131.855 73.0945 127.823 80.2225 118.967 82.3825C118.391 84.9745 118.031 87.4945 118.031 89.5825C118.031 93.6145 119.327 95.4145 120.983 95.4145C123.071 95.4145 124.295 93.5425 125.447 90.9505ZM126.095 64.0225C124.943 64.0225 120.911 73.3105 119.039 81.8785C123.935 78.6385 126.455 68.1265 126.455 64.9585C126.455 64.4545 126.383 64.0225 126.095 64.0225Z" fill="#D640FD"/>
<path d="M95.7878 95.992C95.7878 93.472 103.132 74.68 103.132 71.08C103.132 70.792 102.844 70.36 102.7 70.36C102.052 70.36 100.468 75.04 95.5718 89.152L91.1078 102.04H81.6758L81.7478 101.608L83.9078 96.28L96.1478 48.904L96.2918 44.44L106.444 43L105.58 46.096L93.4118 92.896L94.9958 88.504C100.684 72.448 103.924 63.16 105.508 63.16C109.54 63.16 112.492 67.264 112.492 70C112.492 73.816 104.14 94.768 104.14 97.72C104.14 98.08 104.284 98.224 104.428 98.224C104.788 98.224 105.94 96.28 107.02 93.328L107.38 93.4C106.156 98.224 103.78 102.832 101.692 102.832C99.3878 102.832 95.7878 99.304 95.7878 95.992Z" fill="#D640FD"/>
<path d="M78.3458 97.7199C78.3458 98.0079 78.4898 98.0799 78.6338 98.0799C79.1378 98.0799 80.6498 96.5679 82.2338 94.3359L82.5218 94.5519C80.3618 99.1599 78.1298 102.832 75.9698 102.832C73.8818 102.832 70.4258 98.4399 70.4258 94.6239C70.4258 93.0399 75.8978 74.7519 78.7778 64.4559H76.1138L76.1858 64.1679L89.3618 57.2559H89.6498C89.0738 59.0559 88.4978 61.2879 87.7778 63.8799H90.5858L90.4418 64.4559H87.4898C84.0338 76.3359 78.3458 94.5519 78.3458 97.7199Z" fill="#D640FD"/>
<path d="M65.216 77.4865C65.216 89.9425 55.928 102.83 49.592 102.83C44.984 102.83 42.752 94.4785 42.752 88.5025C42.752 76.1185 52.04 63.2305 58.376 63.2305C62.984 63.2305 65.216 71.5825 65.216 77.4865ZM49.952 102.038C51.824 102.038 58.376 72.0145 58.376 65.3905C58.376 64.3825 58.232 64.0225 58.016 64.0225C56.144 64.0225 49.592 94.0465 49.592 100.67C49.592 101.678 49.736 102.038 49.952 102.038Z" fill="#D640FD"/>
<path d="M36.2286 97.7199C36.2286 98.0079 36.3726 98.0799 36.5166 98.0799C37.0206 98.0799 38.5326 96.5679 40.1166 94.3359L40.4046 94.5519C38.2446 99.1599 36.0126 102.832 33.8526 102.832C31.7646 102.832 28.3086 98.4399 28.3086 94.6239C28.3086 93.0399 33.7806 74.7519 36.6606 64.4559H33.9966L34.0686 64.1679L47.2446 57.2559H47.5326C46.9566 59.0559 46.3806 61.2879 45.6606 63.8799H48.4686L48.3246 64.4559H45.3726C41.9166 76.3359 36.2286 94.5519 36.2286 97.7199Z" fill="#D640FD"/>
</svg>
